<svg xmlns="http://www.w3.org/2000/svg" viewBox="0 0 146.93 40.00" width="146.93" height="40.00"><g transform="translate(0 0.00)"><rect width="40" height="40" rx="10" fill="#F5B83D"/><g fill="none" stroke="#15130F" stroke-width="4.2" stroke-linecap="round" stroke-linejoin="round"><path d="M11 11.5H28.5V20"/><path d="M28.5 11.5L11 29"/><path d="M11 29H29"/></g><path transform="translate(50 9.00) scale(0.33241)" fill="#FFFFFF" d="M40.80 71.10L0 71.10L0 63.60L22.60 34.20L1.80 34.20L1.80 22.80L41.40 22.80L41.40 30.30L18.80 59.70L40.80 59.70L40.80 71.10M67.30 72.10Q60.70 72.10 55.40 68.80Q50.10 65.50 47.10 59.80Q44.10 54.10 44.10 47Q44.10 39.80 47.10 34.10Q50.10 28.40 55.40 25.10Q60.70 21.80 67.30 21.80Q72.50 21.80 76.60 23.90Q79.30 25.30 81.30 27.40L81.30 22.80L94.30 22.80L94.30 71.10L81.30 71.10L81.30 66.40Q79.30 68.50 76.60 69.90Q72.50 72.10 67.30 72.10M69.70 60Q75.20 60 78.60 56.35Q82 52.70 82 46.90Q82 43.10 80.45 40.15Q78.90 37.20 76.15 35.55Q73.40 33.90 69.70 33.90Q66.10 33.90 63.35 35.55Q60.60 37.20 59.05 40.15Q57.50 43.10 57.50 46.90Q57.50 50.80 59.05 53.75Q60.60 56.70 63.35 58.35Q66.10 60 69.70 60M124.10 71.10L111 71.10L111 34.30L99.70 34.30L99.70 22.80L111 22.80L111 2.70L124.10 2.70L124.10 22.80L135.40 22.80L135.40 34.30L124.10 34.30L124.10 71.10M153.90 71.10L140.80 71.10L140.80 22.80L153.90 22.80L153.90 27.10Q153.90 27 154 26.90Q158.30 21.80 166.40 21.80Q169.90 21.80 172.70 22.95Q175.50 24.10 177.80 26.70L169.60 36.10Q168.50 34.90 166.95 34.30Q165.40 33.70 163.40 33.70Q159.20 33.70 156.55 36.35Q153.90 39 153.90 44.40L153.90 71.10M193.60 71.10L180.40 71.10L180.40 22.80L193.60 22.80L193.60 71.10M187 15Q183.80 15 181.70 12.85Q179.60 10.70 179.60 7.50Q179.60 4.40 181.70 2.20Q183.80 0 187 0Q190.30 0 192.35 2.20Q194.40 4.40 194.40 7.50Q194.40 10.70 192.35 12.85Q190.30 15 187 15M219.80 72.20Q215.70 72.20 211.75 71.10Q207.80 70 204.50 68.05Q201.20 66.10 198.80 63.30L206.60 55.40Q209.10 58.20 212.40 59.60Q215.70 61 219.70 61Q222.90 61 224.55 60.10Q226.20 59.20 226.20 57.40Q226.20 55.40 224.45 54.30Q222.70 53.20 219.90 52.45Q217.10 51.70 214.05 50.75Q211 49.80 208.20 48.25Q205.40 46.70 203.65 43.95Q201.90 41.20 201.90 36.80Q201.90 32.20 204.15 28.80Q206.40 25.40 210.60 23.50Q214.80 21.60 220.50 21.60Q226.50 21.60 231.35 23.70Q236.20 25.80 239.40 30L231.50 37.90Q229.30 35.20 226.55 34Q223.80 32.80 220.60 32.80Q217.70 32.80 216.15 33.70Q214.60 34.60 214.60 36.20Q214.60 38 216.35 39Q218.10 40 220.90 40.75Q223.70 41.50 226.75 42.45Q229.80 43.40 232.55 45.10Q235.30 46.80 237.05 49.60Q238.80 52.40 238.80 56.80Q238.80 63.90 233.70 68.05Q228.60 72.20 219.80 72.20M268.70 72.10Q261.10 72.10 255.20 68.85Q249.30 65.60 245.85 59.90Q242.40 54.20 242.40 46.90Q242.40 39.70 245.75 34.05Q249.10 28.40 254.90 25.05Q260.70 21.70 267.80 21.70Q274.80 21.70 280.15 24.85Q285.50 28 288.55 33.45Q291.60 38.90 291.60 45.80Q291.60 47.10 291.45 48.45Q291.30 49.80 290.90 51.50L255.60 51.60Q256 53.10 256.70 54.30Q258.30 57.60 261.40 59.35Q264.50 61.10 268.60 61.10Q272.30 61.10 275.30 59.85Q278.30 58.60 280.50 56.10L288.20 63.80Q284.70 67.90 279.65 70Q274.60 72.10 268.70 72.10M255.60 41.80L279 41.70Q278.60 40 278 38.60Q276.60 35.70 274.05 34.15Q271.50 32.60 267.80 32.60Q263.90 32.60 261 34.35Q258.10 36.10 256.60 39.20Q256 40.40 255.60 41.80"/></g></svg>